<?xml version="1.0" encoding="utf-8"?>
<!-- Generator: Adobe Illustrator 15.1.0, SVG Export Plug-In . SVG Version: 6.00 Build 0)  -->
<!DOCTYPE svg PUBLIC "-//W3C//DTD SVG 1.1//EN" "http://www.w3.org/Graphics/SVG/1.1/DTD/svg11.dtd">
<svg version="1.1" id="Layer_1" xmlns="http://www.w3.org/2000/svg" xmlns:xlink="http://www.w3.org/1999/xlink" x="0px" y="0px"
	 width="149.083px" height="40.417px" viewBox="0 0 149.083 40.417" enable-background="new 0 0 149.083 40.417"
	 xml:space="preserve">
<path fill="#231F20" d="M92.01,20.081l-1.207,4.979c-0.785,3.28-1.325,5.827-1.618,7.642c-0.284-1.997-0.785-4.496-1.504-7.497
	l-1.264-5.124h-8.514v19.757h5.576v-3.807c0-3.29-0.076-6.76-0.227-10.406c0.634,2.788,1.386,5.804,2.257,9.046l1.405,5.167h4.428
	l1.447-5.384c0.879-3.32,1.613-6.264,2.199-8.829l-0.043,1.562c-0.076,2.74-0.132,5.969-0.17,9.684v2.967h5.577V20.081H92.01z
	 M69.284,20.081v12.158c0,2.104-0.933,3.155-2.795,3.155c-1.107,0-1.916-0.309-2.428-0.927c-0.398-0.472-0.595-1.216-0.595-2.229
	V20.081h-5.905v11.681c0,1.109,0.057,2.011,0.17,2.706c0.19,1.129,0.602,2.113,1.236,2.953c1.457,1.939,3.92,2.909,7.393,2.909
	c4.342,0,7.092-1.477,8.245-4.43c0.388-1.013,0.582-2.373,0.582-4.081V20.081H69.284z M47.614,31.443
	c1.494,0,2.242,0.628,2.242,1.882c0,1.206-0.742,1.809-2.228,1.809h-3.69v-3.69H47.614z M47.017,24.582
	c1.392,0,2.087,0.521,2.087,1.563c0,0.453-0.16,0.811-0.482,1.071c-0.303,0.261-0.752,0.391-1.349,0.391h-3.335v-3.025H47.017z
	 M38.218,39.837h10.119c2.138,0,3.781-0.371,4.925-1.114c1.674-1.091,2.512-2.722,2.512-4.893c0-2.277-1.021-3.854-3.066-4.733
	l-0.297-0.13c1.608-0.926,2.412-2.243,2.412-3.951c0-0.811-0.175-1.554-0.524-2.229c-0.455-0.878-1.103-1.525-1.945-1.94
	c-1.021-0.511-2.494-0.767-4.414-0.767h-9.722V39.837z M27.637,34.713V20.081h-5.902v19.757H36.28v-5.124H27.637z M8.5,32.774
	l0.539-1.708c0.633-2.017,1.078-3.574,1.334-4.675c0.207,1.119,0.604,2.645,1.191,4.574l0.582,1.809H8.5z M7.405,20.081
	L0.253,39.837h6.017l0.936-2.808h6.246l0.935,2.808h6.032L13.28,20.081H7.405z"/>
<polygon fill="#231F20" points="100.354,0.338 100.354,20.081 114.89,20.081 114.89,14.96 106.253,14.96 106.253,0.338 "/>
<path fill="#231F20" d="M138.095,5.343c0.738,0,1.334,0.063,1.787,0.188c0.965,0.27,1.711,0.815,2.242,1.634
	c0.547,0.868,0.82,1.91,0.82,3.124c0,1.572-0.404,2.802-1.218,3.688c-0.69,0.743-1.716,1.114-3.078,1.114h-2.283V5.343H138.095z
	 M130.466,20.081h8.565c1.286,0,2.463-0.116,3.531-0.348c1.353-0.298,2.553-0.964,3.603-1.995c1.844-1.793,2.766-4.32,2.766-7.579
	c0-1.475-0.237-2.839-0.709-4.094c-0.521-1.358-1.277-2.502-2.27-3.427c-1.654-1.534-3.923-2.299-6.807-2.299h-8.68V20.081z"/>
<polygon fill="#231F20" points="111.563,0.338 111.563,5.458 117.009,5.458 117.009,20.081 122.908,20.081 122.908,5.458 
	128.325,5.458 128.325,0.338 "/>
</svg>
